<?xml version="1.0" standalone="no"?>
<!DOCTYPE svg PUBLIC "-//W3C//DTD SVG 20010904//EN"
 "http://www.w3.org/TR/2001/REC-SVG-20010904/DTD/svg10.dtd">
<svg version="1.0" xmlns="http://www.w3.org/2000/svg"
 width="256.000000pt" height="254.000000pt" viewBox="0 0 256.000000 254.000000"
 preserveAspectRatio="xMidYMid meet">
<metadata>
Created by potrace 1.15, written by Peter Selinger 2001-2017
</metadata>
<g transform="translate(0.000000,254.000000) scale(0.100000,-0.100000)"
fill="#000000" stroke="none">
<path d="M990 2504 c-361 -41 -693 -281 -855 -617 -41 -86 -87 -227 -104 -317
-7 -36 -17 -81 -22 -100 -27 -93 7 -365 67 -532 52 -143 159 -326 250 -427 39
-43 43 -45 68 -33 34 15 33 34 -5 118 -74 162 -109 399 -90 595 25 244 114
511 222 664 196 278 588 389 822 234 49 -32 97 -86 97 -109 0 -30 -203 30
-287 86 -93 60 -118 43 -118 -80 0 -72 4 -89 33 -149 l34 -68 -145 -142 c-256
-251 -328 -402 -328 -689 -1 -270 62 -454 209 -610 188 -200 502 -306 877
-296 l130 3 0 26 c0 19 -14 37 -55 70 -121 99 -185 214 -178 319 8 111 117
280 181 280 32 0 84 -12 242 -58 171 -49 169 -49 217 -17 125 83 235 228 274
361 19 67 16 73 -65 98 -212 67 -346 313 -391 717 -45 401 -235 594 -646 654
-100 14 -370 26 -434 19z m315 -94 c271 -25 426 -85 536 -208 66 -73 117 -187
134 -299 6 -36 4 -43 -17 -57 -37 -24 -134 -35 -192 -21 -109 25 -173 73 -222
165 -133 254 -459 333 -771 185 -207 -97 -346 -250 -441 -484 -91 -226 -124
-399 -121 -638 1 -95 0 -176 -3 -179 -10 -9 -56 98 -78 181 -70 270 -39 539
94 803 81 160 199 296 341 392 217 147 417 190 740 160z m-56 -485 c41 -15
112 -32 158 -38 74 -10 89 -16 131 -50 95 -79 195 -112 311 -103 42 3 91 7
110 8 l35 3 17 -89 c26 -132 55 -220 106 -326 58 -121 152 -220 256 -269 45
-22 67 -38 67 -50 0 -18 -62 -125 -93 -162 -10 -11 -24 -18 -30 -15 -118 52
-138 57 -220 54 -77 -3 -82 -4 -85 -26 -6 -41 14 -52 93 -52 78 0 145 -21 145
-44 0 -8 -13 -24 -30 -36 l-30 -21 -80 25 c-143 45 -277 76 -380 87 -204 20
-328 97 -380 236 -29 77 -24 152 20 256 l33 79 -20 20 c-27 26 -55 12 -82 -40
-60 -117 -67 -270 -19 -374 52 -113 169 -203 307 -239 30 -7 51 -18 51 -27 0
-7 -14 -34 -31 -59 -105 -152 -98 -348 17 -489 25 -30 42 -59 39 -64 -15 -25
-231 1 -390 46 -261 74 -453 248 -522 474 -25 81 -43 203 -43 295 1 257 103
452 357 675 l103 92 60 -21 c101 -35 247 -20 264 26 16 42 -25 74 -66 52 -35
-19 -129 -14 -180 9 -30 13 -56 34 -75 63 -28 41 -53 99 -53 122 0 12 39 4
129 -28z"/>
<path d="M1727 1534 c-11 -11 -8 -49 5 -62 7 -7 40 -12 79 -12 73 0 93 12 87
52 -3 22 -8 23 -83 26 -45 1 -84 0 -88 -4z"/>
</g>
</svg>
